<svg width="473" height="360" viewBox="0 0 473 360" fill="none" xmlns="http://www.w3.org/2000/svg">
<g clip-path="url(#clip0_462_1037)">
<path d="M189.205 74.6557H187.48V27.3686C187.48 23.7745 186.773 20.2156 185.398 16.8951C184.024 13.5746 182.01 10.5575 179.47 8.01607C176.93 5.47467 173.915 3.45872 170.597 2.08332C167.279 0.707915 163.723 3.04519e-06 160.131 0H60.0171C52.7636 -1.38373e-05 45.8072 2.88343 40.6782 8.01601C35.5492 13.1486 32.6678 20.1099 32.6678 27.3685V286.79C32.6678 290.384 33.3752 293.943 34.7496 297.263C36.124 300.584 38.1385 303.601 40.6782 306.142C43.2178 308.683 46.2327 310.699 49.5509 312.075C52.8691 313.45 56.4255 314.158 60.017 314.158H160.131C167.384 314.158 174.341 311.275 179.47 306.142C184.599 301.01 187.48 294.048 187.48 286.79V108.316H189.205V74.6557Z" fill="#3F3D56"/>
<path d="M161.234 7.12012H148.166C148.767 8.59454 148.997 10.1942 148.834 11.7783C148.672 13.3623 148.123 14.8821 147.235 16.2037C146.348 17.5254 145.149 18.6083 143.745 19.3571C142.34 20.1059 140.773 20.4976 139.182 20.4977H81.8283C80.237 20.4976 78.6702 20.1059 77.2659 19.3571C75.8616 18.6083 74.6628 17.5254 73.7753 16.2038C72.8877 14.8821 72.3385 13.3623 72.1761 11.7783C72.0138 10.1942 72.2432 8.59454 72.8442 7.12012H60.6385C57.9563 7.12011 55.3004 7.64877 52.8225 8.6759C50.3445 9.70303 48.093 11.2085 46.1964 13.1064C44.2998 15.0043 42.7954 17.2574 41.769 19.7371C40.7426 22.2169 40.2143 24.8746 40.2143 27.5586V286.599C40.2143 289.283 40.7426 291.941 41.769 294.421C42.7954 296.9 44.2998 299.153 46.1964 301.051C48.0929 302.949 50.3445 304.455 52.8225 305.482C55.3004 306.509 57.9563 307.038 60.6384 307.038H161.234C163.917 307.038 166.572 306.509 169.05 305.482C171.528 304.455 173.78 302.949 175.677 301.051C177.573 299.153 179.077 296.9 180.104 294.421C181.13 291.941 181.659 289.283 181.659 286.599V27.5586C181.659 24.8746 181.13 22.2169 180.104 19.7371C179.077 17.2574 177.573 15.0043 175.677 13.1064C173.78 11.2085 171.528 9.70303 169.05 8.6759C166.572 7.64877 163.917 7.12011 161.234 7.12012Z" fill="white"/>
<path d="M221.294 314.202H0.579303C0.425662 314.202 0.278314 314.141 0.169673 314.033C0.0610331 313.924 0 313.776 0 313.623C0 313.469 0.0610331 313.321 0.169673 313.213C0.278314 313.104 0.425662 313.043 0.579303 313.043H221.294C221.447 313.043 221.595 313.104 221.703 313.213C221.812 313.321 221.873 313.469 221.873 313.623C221.873 313.776 221.812 313.924 221.703 314.033C221.595 314.141 221.447 314.202 221.294 314.202Z" fill="#CBCBCB"/>
<path d="M110.936 200.394C137.954 200.394 159.856 178.476 159.856 151.44C159.856 124.403 137.954 102.485 110.936 102.485C83.9188 102.485 62.0166 124.403 62.0166 151.44C62.0166 178.476 83.9188 200.394 110.936 200.394Z" fill="#F50057"/>
<path d="M106.089 170.114C104.988 170.116 103.917 169.759 103.036 169.099L102.982 169.058L91.4849 160.257C90.9525 159.848 90.5056 159.339 90.1699 158.758C89.8342 158.176 89.6162 157.535 89.5283 156.869C89.4405 156.203 89.4845 155.527 89.6578 154.878C89.8312 154.23 90.1305 153.622 90.5388 153.089C90.947 152.556 91.4561 152.109 92.037 151.773C92.6179 151.437 93.2592 151.219 93.9244 151.131C94.5895 151.043 95.2655 151.087 95.9136 151.26C96.5618 151.434 97.1694 151.733 97.7019 152.142L105.149 157.856L122.746 134.883C123.154 134.35 123.663 133.903 124.243 133.568C124.824 133.232 125.465 133.014 126.13 132.926C126.795 132.838 127.47 132.882 128.118 133.055C128.766 133.229 129.374 133.528 129.906 133.937L129.907 133.938L129.798 134.089L129.91 133.938C130.984 134.764 131.687 135.982 131.864 137.326C132.041 138.669 131.678 140.028 130.855 141.104L110.157 168.114C109.678 168.736 109.062 169.24 108.358 169.586C107.653 169.932 106.878 170.11 106.093 170.108L106.089 170.114Z" fill="white"/>
<path d="M402.178 319.014C402.773 318.051 403.474 317.158 404.267 316.35C404.594 316.011 404.939 315.691 405.295 315.38C407.458 313.453 410.094 312.138 412.934 311.569C415.773 311 418.713 311.199 421.45 312.144C424.187 313.089 426.624 314.746 428.509 316.946C430.394 319.146 431.659 321.808 432.175 324.659C434.565 315.817 428.345 307.108 422.092 300.418C415.836 293.731 408.685 286.395 408.721 277.231C408.739 272.132 411.231 267.583 414.994 264.211C415.111 264.108 415.227 264.006 415.345 263.908C419.894 260.006 425.746 257.965 431.732 258.193C442.854 258.789 452.566 266.269 459.31 275.142C470.165 289.419 474.922 309.459 467.323 325.711C460.638 340.005 446.382 348.492 431.831 355.316C429.8 356.269 427.772 357.194 425.748 358.089C425.735 358.093 425.721 358.102 425.707 358.106C425.61 358.149 425.512 358.191 425.421 358.236C425.003 358.42 424.586 358.604 424.172 358.786L424.363 358.912L424.962 359.3C424.754 359.174 424.549 359.052 424.342 358.926C424.28 358.888 424.215 358.852 424.153 358.814C417.007 354.523 409.761 349.984 404.824 343.285C399.704 336.33 397.646 326.367 402.178 319.014Z" fill="#F1F1F1"/>
<path d="M449.856 302.861C451.439 306.464 452.488 310.278 452.97 314.183C453.35 317.665 453.207 321.185 452.547 324.625C451.128 331.694 448.033 338.319 443.523 343.943C440.12 348.212 436.192 352.033 431.832 355.316C429.8 356.269 427.772 357.194 425.749 358.089C425.735 358.093 425.721 358.102 425.707 358.106C425.61 358.149 425.512 358.192 425.421 358.236C425.003 358.42 424.586 358.605 424.172 358.787L424.363 358.912L424.962 359.3C424.754 359.174 424.549 359.052 424.342 358.926C424.28 358.888 424.215 358.853 424.153 358.814C425.726 353.309 425.957 347.508 424.827 341.895C423.698 336.282 421.24 331.022 417.661 326.556C414.062 322.145 409.473 318.649 404.267 316.351C404.594 316.011 404.939 315.691 405.294 315.38C407.3 316.301 409.22 317.398 411.032 318.658C417.513 323.141 422.379 329.592 424.911 337.058C427.171 343.831 427.454 351.109 425.725 358.037C426.083 357.802 426.443 357.561 426.794 357.322C433.451 352.829 439.586 347.434 444.208 340.817C448.194 335.225 450.745 328.738 451.635 321.927C452.521 314.488 450.661 307.171 447.342 300.533C443.676 293.431 439.058 286.864 433.614 281.014C428.147 275.003 421.965 269.684 415.207 265.175C415.054 265.072 414.947 264.915 414.908 264.735C414.868 264.556 414.899 264.368 414.994 264.211C415.067 264.068 415.193 263.959 415.345 263.908C415.422 263.888 415.503 263.886 415.581 263.902C415.66 263.918 415.733 263.951 415.797 263.999C416.631 264.557 417.458 265.119 418.275 265.698C425.082 270.52 431.263 276.171 436.677 282.518C441.909 288.637 446.67 295.435 449.856 302.861Z" fill="white"/>
<path d="M304.158 22.7306C309.896 22.7306 314.547 18.0759 314.547 12.3341C314.547 6.5922 309.896 1.9375 304.158 1.9375C298.42 1.9375 293.769 6.5922 293.769 12.3341C293.769 18.0759 298.42 22.7306 304.158 22.7306Z" fill="#F1F1F1"/>
<path d="M433.343 161.861C436.841 161.861 439.677 159.023 439.677 155.522C439.677 152.021 436.841 149.184 433.343 149.184C429.844 149.184 427.009 152.021 427.009 155.522C427.009 159.023 429.844 161.861 433.343 161.861Z" fill="#F1F1F1"/>
<path d="M247.966 179.252C251.464 179.252 254.3 176.414 254.3 172.914C254.3 169.413 251.464 166.575 247.966 166.575C244.468 166.575 241.632 169.413 241.632 172.914C241.632 176.414 244.468 179.252 247.966 179.252Z" fill="#F1F1F1"/>
<path d="M251.542 360H472.256C472.41 360 472.557 359.939 472.666 359.83C472.775 359.722 472.836 359.574 472.836 359.421C472.836 359.267 472.775 359.119 472.666 359.011C472.557 358.902 472.41 358.841 472.256 358.841H251.542C251.388 358.841 251.241 358.902 251.133 359.011C251.024 359.119 250.963 359.267 250.963 359.421C250.963 359.574 251.024 359.722 251.133 359.83C251.241 359.939 251.388 360 251.542 360Z" fill="#CBCBCB"/>
<path d="M447.899 56.0204C448.189 53.9614 447.714 51.8674 446.564 50.1354C445.414 48.4034 443.669 47.1537 441.66 46.6231C439.651 46.0924 437.517 46.3177 435.663 47.2562C433.809 48.1948 432.363 49.7814 431.6 51.7154L413.689 72.2628L418.945 86.9508L436.957 62.9419C438.132 63.3187 439.376 63.433 440.6 63.2768C441.824 63.1205 443 62.6976 444.043 62.0377C445.086 61.3778 445.972 60.497 446.638 59.4574C447.305 58.4177 447.735 57.2445 447.899 56.0204Z" fill="#FFB7B7"/>
<path d="M373.658 135.97L433.111 72.4751L425.092 59.7168L350.522 122.826L373.658 135.97Z" fill="#3F3D56"/>
<path d="M360.389 97.3915C371.907 97.3915 381.244 88.0479 381.244 76.5219C381.244 64.996 371.907 55.6523 360.389 55.6523C348.871 55.6523 339.534 64.996 339.534 76.5219C339.534 88.0479 348.871 97.3915 360.389 97.3915Z" fill="#2F2E41"/>
<path d="M362.065 64.7319C366.553 60.1779 371.983 56.6637 377.975 54.4367C381.82 53.0109 386.006 52.13 390.027 52.9397C394.048 53.7494 397.85 56.5328 398.972 60.4805C399.889 63.7085 398.942 67.1841 397.518 70.2228C396.095 73.2615 394.194 76.0793 393.043 79.2314C391.869 82.4477 391.516 85.9065 392.016 89.294C392.516 92.6815 393.854 95.8904 395.907 98.6294C397.961 101.368 400.666 103.551 403.776 104.978C406.887 106.406 410.304 107.033 413.718 106.804C409.768 107.334 406.126 109.192 402.265 110.18C398.403 111.169 393.846 111.102 390.976 108.334C387.94 105.405 387.88 100.643 388.026 96.4253C388.245 90.1558 388.463 83.8862 388.681 77.6166C388.792 74.4193 388.887 71.1194 387.735 68.1352C386.583 65.1509 383.844 62.5377 380.647 62.5648C378.224 62.5854 376.08 64.0543 374.137 65.5028C372.194 66.9514 370.137 68.4969 367.724 68.7123C365.31 68.9278 362.555 67.1404 362.735 64.7225L362.065 64.7319Z" fill="#2F2E41"/>
<path d="M281.18 216.651C279.178 217.207 277.042 217.01 275.175 216.095C273.309 215.181 271.843 213.613 271.055 211.689C270.267 209.765 270.211 207.618 270.899 205.656C271.586 203.694 272.969 202.052 274.785 201.042L292.802 180.588L308.04 183.882L286.608 204.89C287.135 206.007 287.41 207.226 287.416 208.461C287.421 209.696 287.155 210.917 286.638 212.038C286.12 213.16 285.364 214.154 284.421 214.951C283.478 215.748 282.372 216.328 281.18 216.651H281.18Z" fill="#FFB7B7"/>
<path d="M340.455 143.423L295.55 199.829L281.863 193.54L334.643 111.312L340.455 143.423Z" fill="#3F3D56"/>
<path d="M304.625 313.745L293.923 313.577L295.21 350.079H304.623L304.625 313.745Z" fill="#FFB7B7"/>
<path d="M307.025 347.004L288.486 347.003H288.486C285.352 347.003 282.347 348.249 280.132 350.466C277.916 352.683 276.672 355.69 276.671 358.825V359.209L307.024 359.21L307.025 347.004Z" fill="#2F2E41"/>
<path d="M375.484 304.064L363.793 311.575L387.178 339.729L395.1 334.639L375.484 304.064Z" fill="#FFB7B7"/>
<path d="M395.46 330.753L379.86 340.775L379.859 340.776C377.222 342.47 375.366 345.143 374.699 348.206C374.032 351.27 374.608 354.473 376.3 357.111L376.508 357.435L402.05 341.025L395.46 330.753Z" fill="#2F2E41"/>
<path d="M379.649 192.603C379.649 192.603 353.673 106.269 345.325 105.102C336.977 103.935 323.527 127.254 323.527 127.254C306.088 149.52 288.106 221.643 288.106 221.643C288.106 221.643 318.083 223.52 339.996 235.187C361.91 246.854 387.77 234.597 387.77 234.597L379.649 192.603Z" fill="#3F3D56"/>
<path opacity="0.1" d="M379.649 192.603C379.649 192.603 353.673 106.268 345.325 105.102C336.977 103.935 326.943 127.491 326.943 127.491C318.254 163.433 288.106 221.643 288.106 221.643C288.106 221.643 318.083 223.52 339.996 235.187C361.91 246.854 387.77 234.596 387.77 234.596L379.649 192.603Z" fill="black"/>
<path d="M358.338 166.772V210.155L363.44 272.998L388.929 320.534L376.763 329.23L342.005 284.012L328.258 239.114L306.668 338.505L290.447 337.346L301.712 199.542L323.089 160.754L358.338 166.772Z" fill="#2F2E41"/>
<path d="M332.148 124.812C324.037 132.928 331.568 141.623 331.568 141.623L322.299 162.493L358.796 172.348L371.55 115.317L362.86 106.042C345.481 105.462 345.472 105.102 345.472 105.102C342.427 108.083 332.148 124.812 332.148 124.812Z" fill="#F50057"/>
<path d="M373.019 109.408C371.362 108.184 369.478 107.301 367.477 106.81C365.476 106.319 363.397 106.231 361.362 106.55C359.326 106.869 357.374 107.588 355.619 108.668C353.863 109.747 352.339 111.164 351.135 112.836C341.96 125.62 333.476 146.263 345.165 172.008C363.934 213.347 380.267 234.509 386.907 234.507C387.197 234.51 387.485 234.464 387.76 234.373C391.848 232.985 397.757 226.065 398.827 219.966C399.21 217.783 399.118 214.742 396.51 212.654C389.016 206.656 375.563 187.981 371.367 163.4C369.048 149.817 373.545 137.445 377.726 129.458C379.493 126.153 380.009 122.322 379.182 118.667C378.354 115.012 376.238 111.777 373.221 109.557L373.019 109.408Z" fill="#3F3D56"/>
<path d="M361.461 95.3409C368.901 91.2712 371.635 81.937 367.568 74.4924C363.501 67.0477 354.174 64.3116 346.734 68.3813C339.295 72.4509 336.561 81.7851 340.627 89.2298C344.694 96.6745 354.022 99.4105 361.461 95.3409Z" fill="#FFB7B7"/>
<path d="M332.508 80.6994H354.675L354.903 77.5146L356.039 80.6994H359.453L359.903 74.3872L362.156 80.6994H368.76V80.3867C368.755 75.9922 367.009 71.7791 363.904 68.6718C360.798 65.5644 356.588 63.8165 352.197 63.8115H349.072C344.68 63.8165 340.47 65.5644 337.365 68.6717C334.26 71.7791 332.513 75.9922 332.508 80.3867V80.6994Z" fill="#2F2E41"/>
<path d="M365.411 92.1474L374.871 89.0757V66.0869H357.003L357.445 66.5289C363.6 72.6802 370.446 94.504 365.411 92.1474Z" fill="#2F2E41"/>
</g>
<defs>
<clipPath id="clip0_462_1037">
<rect width="472.836" height="360" fill="white"/>
</clipPath>
</defs>
</svg>
