<svg width="520" height="528" viewBox="0 0 520 528" fill="none" xmlns="http://www.w3.org/2000/svg">
<g clip-path="url(#clip0_2_157)">
<path d="M458.67 200.646C429.553 86.1021 328.943 3.41735 210.849 0.100935C148.417 -1.65235 82.7201 19.0625 34.8881 91.5513C-50.6167 221.133 40.1426 310.678 103.418 353.228C133.987 373.826 161.532 398.593 185.254 426.813C227.994 477.552 310.217 540.603 408.14 441.812C479.115 370.208 478.065 276.944 458.67 200.646Z" fill="#F2F2F2"/>
<path d="M508.463 464.395C508.463 486.971 402.335 527.027 271.42 527.027C140.505 527.027 46.803 445.854 46.803 423.277C46.803 400.701 140.505 445.27 271.42 445.27C402.335 445.27 508.463 441.818 508.463 464.395Z" fill="#3F3D56"/>
<path opacity="0.1" d="M508.463 464.395C508.463 486.971 402.335 527.027 271.42 527.027C140.505 527.027 46.803 445.854 46.803 423.277C46.803 400.701 140.505 445.27 271.42 445.27C402.335 445.27 508.463 441.818 508.463 464.395Z" fill="black"/>
<path d="M508.463 464.156C508.463 486.732 402.335 505.034 271.42 505.034C140.505 505.034 46.803 445.854 46.803 423.277C46.803 400.701 140.505 423.277 271.42 423.277C402.335 423.277 508.463 441.579 508.463 464.156Z" fill="#3F3D56"/>
<g opacity="0.7">
<path opacity="0.7" d="M500.616 123.044C492.018 139.74 464.767 159.413 448.078 150.811C431.39 142.209 431.583 108.59 440.182 91.8946C444.311 83.8787 451.455 77.8322 460.04 75.0848C468.626 72.3375 477.951 73.1143 485.964 77.2445C493.978 81.3748 500.023 88.5201 502.771 97.1089C505.518 105.698 504.743 115.027 500.616 123.044Z" fill="#EC1B65"/>
<path opacity="0.7" d="M449.49 155.226C448.954 154.18 448.104 153.328 447.059 152.79C446.015 152.252 444.828 152.054 443.665 152.224L446.666 146.396L452.491 149.399L449.49 155.226Z" fill="#EC1B65"/>
<path opacity="0.7" d="M445.245 149.194C445.914 150.119 446.793 150.872 447.809 151.391C448.826 151.91 449.951 152.18 451.092 152.178" stroke="#2F2E41" stroke-width="2" stroke-miterlimit="10"/>
<path opacity="0.4" d="M495.895 104.479C498.07 100.255 496.982 95.3606 493.463 93.5469C489.944 91.7333 485.328 93.6875 483.153 97.9117C480.977 102.136 482.066 107.03 485.585 108.844C489.104 110.658 493.72 108.704 495.895 104.479Z" fill="white"/>
<path opacity="0.7" d="M447.922 151.02L422.562 214.863" stroke="#2F2E41" stroke-width="2" stroke-miterlimit="10"/>
</g>
<path d="M505.97 225.458C487.145 244.457 441.706 259.513 422.716 240.681C403.725 221.849 418.373 176.26 437.198 157.261C446.238 148.143 458.529 142.99 471.367 142.935C484.205 142.881 496.538 147.93 505.656 156.971C514.774 166.013 519.929 178.307 519.988 191.15C520.046 203.993 515.004 216.334 505.97 225.458Z" fill="#FF6584"/>
<path d="M422.745 247.283C422.463 245.633 421.673 244.111 420.484 242.933C419.296 241.754 417.768 240.977 416.116 240.71L422.686 234.078L429.315 240.652L422.745 247.283Z" fill="#FF6584"/>
<path d="M419.558 237.271C420.071 238.814 420.943 240.213 422.102 241.353C423.261 242.493 424.674 243.342 426.225 243.829" stroke="#2F2E41" stroke-width="2" stroke-miterlimit="10"/>
<path d="M421.451 242.283L359.032 305.281" stroke="#2F2E41" stroke-width="2" stroke-miterlimit="10"/>
<path opacity="0.4" d="M507.5 198.216C512.262 193.409 512.877 186.294 508.873 182.323C504.869 178.353 497.762 179.03 492.999 183.837C488.237 188.644 487.622 195.76 491.626 199.731C495.63 203.701 502.737 203.023 507.5 198.216Z" fill="white"/>
<path d="M447.133 163.909C440.93 189.93 409.945 226.43 383.935 220.224C357.924 214.018 346.739 167.458 352.942 141.437C355.928 128.948 363.748 118.157 374.684 111.435C385.62 104.713 398.776 102.61 411.261 105.589C423.747 108.568 434.539 116.384 441.265 127.32C447.992 138.256 450.102 151.417 447.133 163.909Z" fill="#EC1B65"/>
<path d="M387.391 225.848C386.293 224.585 384.827 223.697 383.199 223.308C381.571 222.92 379.863 223.051 378.313 223.682L380.478 214.6L389.557 216.766L387.391 225.848Z" fill="#EC1B65"/>
<path d="M379.465 218.954C380.705 220.005 382.177 220.747 383.76 221.118C385.343 221.488 386.991 221.478 388.569 221.087" stroke="#2F2E41" stroke-width="2" stroke-miterlimit="10"/>
<path opacity="0.4" d="M434.279 139.845C435.849 133.261 432.675 126.863 427.191 125.555C421.707 124.246 415.989 128.523 414.42 135.106C412.85 141.69 416.024 148.088 421.508 149.396C426.992 150.705 432.71 146.428 434.279 139.845Z" fill="white"/>
<path d="M383.79 222.239L363.222 308.522" stroke="#2F2E41" stroke-width="2" stroke-miterlimit="10"/>
<g opacity="0.8">
<path opacity="0.8" d="M158.828 392.071C145.307 405.234 113.061 415.276 99.9035 401.749C86.7461 388.222 97.6599 356.249 111.181 343.086C114.396 339.956 118.196 337.49 122.363 335.829C126.531 334.169 130.985 333.345 135.47 333.407C139.956 333.468 144.386 334.412 148.506 336.186C152.627 337.96 156.358 340.528 159.487 343.745C162.615 346.961 165.08 350.763 166.74 354.932C168.4 359.101 169.223 363.557 169.162 368.044C169.101 372.532 168.157 376.963 166.383 381.086C164.61 385.208 162.043 388.941 158.828 392.071Z" fill="#EC1B65"/>
<path opacity="0.8" d="M99.8399 406.407C99.6626 405.239 99.1244 404.156 98.3009 403.309C97.4773 402.463 96.4097 401.895 95.2475 401.686L99.9669 397.091L104.559 401.813L99.8399 406.407Z" fill="#EC1B65"/>
<path opacity="0.8" d="M97.7192 399.303C98.0615 400.399 98.6588 401.397 99.462 402.216C100.265 403.035 101.251 403.651 102.339 404.014" stroke="#2F2E41" stroke-width="2" stroke-miterlimit="10"/>
<path opacity="0.4" d="M160.254 372.873C163.675 369.542 164.199 364.53 161.425 361.678C158.651 358.826 153.629 359.214 150.208 362.544C146.787 365.875 146.262 370.887 149.037 373.739C151.811 376.591 156.833 376.203 160.254 372.873Z" fill="white"/>
</g>
<path d="M305.576 114.684H315.075C321.307 114.684 327.284 117.16 331.69 121.569C336.097 125.977 338.572 131.957 338.572 138.191V171.201H282.079V138.191C282.079 135.104 282.686 132.047 283.867 129.195C285.048 126.343 286.779 123.752 288.961 121.569C291.143 119.386 293.733 117.655 296.584 116.473C299.435 115.292 302.49 114.684 305.576 114.684Z" fill="#2F2E41"/>
<path d="M278.613 261.845L271.483 276.841C271.483 276.841 265.672 296.987 272.257 299.14C278.841 301.294 280.127 278.467 280.127 278.467L285.58 263.352L278.613 261.845Z" fill="#FFB9B9"/>
<path opacity="0.1" d="M278.613 261.845L271.483 276.841C271.483 276.841 265.672 296.987 272.257 299.14C278.841 301.294 280.127 278.467 280.127 278.467L285.58 263.352L278.613 261.845Z" fill="black"/>
<path d="M279.963 238.375L270.946 269.947L285.223 277.464V239.878L279.963 238.375Z" fill="#575A89"/>
<path d="M304.384 154.558C304.384 154.558 303.632 166.586 302.13 166.586C300.627 166.586 297.621 180.868 297.621 180.868L310.395 189.137L326.174 174.855L321.666 163.579C321.666 163.579 319.412 159.069 320.163 154.558C320.914 150.048 304.384 154.558 304.384 154.558Z" fill="#FFB9B9"/>
<path opacity="0.1" d="M304.384 154.558C304.384 154.558 303.632 166.586 302.13 166.586C300.627 166.586 297.621 180.868 297.621 180.868L310.395 189.137L326.174 174.855L321.666 163.579C321.666 163.579 319.412 159.069 320.163 154.558C320.914 150.048 304.384 154.558 304.384 154.558Z" fill="black"/>
<path d="M351.722 274.081L353.225 290.619C353.225 290.619 358.484 310.915 365.247 309.412C372.01 307.908 361.49 287.612 361.49 287.612L358.484 271.826L351.722 274.081Z" fill="#FFB9B9"/>
<path d="M319.412 437.203C319.412 437.203 323.92 465.017 320.915 470.279C317.909 475.541 323.92 476.293 323.92 476.293L341.954 471.782V463.513C341.954 463.513 335.943 436.452 335.943 434.948C335.943 433.445 319.412 437.203 319.412 437.203Z" fill="#FFB9B9"/>
<path d="M282.593 312.419C282.593 312.419 287.853 366.542 296.118 383.832C304.384 401.121 311.898 448.479 315.655 449.231C319.412 449.983 347.965 444.721 351.722 441.714C355.479 438.707 326.174 365.79 326.174 365.039C326.174 364.287 319.412 297.384 319.412 297.384L310.395 282.35L282.593 312.419Z" fill="#2F2E41"/>
<path opacity="0.1" d="M282.593 312.419C282.593 312.419 287.853 366.542 296.118 383.832C304.384 401.121 311.898 448.479 315.655 449.231C319.412 449.983 347.965 444.721 351.722 441.714C355.479 438.707 326.174 365.79 326.174 365.039C326.174 364.287 319.412 297.384 319.412 297.384L310.395 282.35L282.593 312.419Z" fill="black"/>
<path d="M326.174 468.775C326.174 468.775 318.66 465.017 317.158 467.272L311.146 476.293C311.146 476.293 285.599 488.32 294.616 489.823C303.632 491.327 320.915 491.327 323.169 489.823C325.423 488.32 350.219 474.789 349.468 474.037C348.716 473.286 342.705 457.5 341.954 459.003C341.202 460.507 330.683 471.782 326.174 468.775Z" fill="#2F2E41"/>
<path d="M199.939 404.88C199.939 404.88 182.657 416.907 174.392 414.652C166.126 412.397 174.392 431.19 174.392 431.19L189.42 439.459L193.928 435.7C193.928 435.7 209.707 414.652 216.47 413.9C223.233 413.149 199.939 404.88 199.939 404.88Z" fill="#FFB9B9"/>
<path d="M278.085 267.316L281.09 283.102L224.735 368.797C224.735 368.797 190.922 402.624 193.928 406.383C196.933 410.142 215.719 431.941 220.227 428.935C224.735 425.928 329.18 313.17 328.429 298.136C327.677 283.102 302.881 254.536 302.881 254.536L278.085 265.812V267.316Z" fill="#2F2E41"/>
<path d="M178.149 419.914C178.149 419.914 184.911 412.397 181.154 411.645C176.928 410.9 172.663 410.398 168.38 410.142C166.878 410.142 146.59 399.618 145.087 403.376C143.584 407.135 154.104 426.679 160.115 428.935C166.126 431.19 187.917 446.976 187.917 446.976C187.917 446.976 199.188 437.203 197.685 434.948C196.182 432.693 175.143 428.183 178.149 419.914Z" fill="#2F2E41"/>
<path d="M310.395 162.075C320.355 162.075 328.428 153.998 328.428 144.034C328.428 134.07 320.355 125.993 310.395 125.993C300.435 125.993 292.361 134.07 292.361 144.034C292.361 153.998 300.435 162.075 310.395 162.075Z" fill="#FFB9B9"/>
<path d="M314.152 171.096C314.152 171.096 301.378 171.848 297.621 169.593C293.864 167.337 285.599 200.413 285.599 200.413L280.339 244.012C280.339 244.012 279.588 249.274 280.339 252.281C281.09 255.288 272.825 250.778 275.83 259.047C278.836 267.316 273.576 271.074 278.836 271.826C284.096 272.578 311.898 261.302 311.898 261.302L324.671 194.399L328.428 167.337L314.152 171.096Z" fill="#D0CDE1"/>
<path d="M303.04 164.989C303.04 164.989 296.118 163.579 293.864 165.082C291.61 166.586 283.345 177.862 283.345 180.868C283.345 183.875 280.339 216.951 280.339 219.958C280.339 222.964 278.085 238.75 278.085 240.254C278.085 241.757 280.012 248.219 280.012 248.219L284.847 239.502C284.847 239.502 283.345 228.226 288.604 210.185C293.864 192.144 303.04 164.989 303.04 164.989Z" fill="#575A89"/>
<path d="M310.395 176.358C310.395 176.358 320.433 160.572 321.049 162.075C321.666 163.579 332.937 165.834 332.937 165.834C332.937 165.834 353.225 180.117 351.722 186.13C350.219 192.144 339.7 237.247 339.7 237.247C339.7 237.247 329.931 260.55 337.445 277.088C344.959 293.626 335.943 299.639 335.943 299.639C335.943 299.639 329.931 302.646 331.434 305.653C332.937 308.66 314.152 319.936 311.898 311.667C309.643 303.398 281.842 253.785 287.853 235.744C293.864 217.702 310.395 176.358 310.395 176.358Z" fill="#575A89"/>
<path d="M347.965 183.875C347.965 183.875 356.23 199.661 354.728 201.916C353.225 204.172 359.987 217.702 359.987 217.702C359.519 218.912 359.519 220.252 359.987 221.461C360.739 223.716 365.247 233.488 365.247 237.247C365.247 241.006 364.496 253.033 365.247 258.295C365.999 263.557 375.767 276.336 367.501 277.088C359.236 277.84 345.711 284.605 346.462 277.088C347.214 269.571 349.468 251.53 346.462 248.523C343.457 245.516 341.202 245.516 342.705 241.757C344.208 237.999 335.943 228.226 335.943 228.226L347.965 183.875Z" fill="#575A89"/>
<path d="M325.463 139.59H296.941L290.483 124.742H330.307L325.463 139.59Z" fill="#2F2E41"/>
<path d="M293.199 150.455C293.961 150.234 294.101 148.407 293.512 146.374C292.923 144.342 291.829 142.873 291.067 143.094C290.305 143.315 290.164 145.142 290.753 147.174C291.342 149.207 292.437 150.675 293.199 150.455Z" fill="#FFB9B9"/>
<path d="M329.419 147.174C330.008 145.142 329.868 143.315 329.106 143.094C328.344 142.873 327.249 144.342 326.66 146.374C326.071 148.407 326.212 150.234 326.974 150.455C327.736 150.675 328.83 149.207 329.419 147.174Z" fill="#FFB9B9"/>
<path d="M497.971 433.148C497.971 450.609 487.596 456.706 474.797 456.706C474.499 456.706 474.202 456.702 473.908 456.698C473.314 456.682 472.727 456.654 472.148 456.613C460.595 455.797 451.623 449.387 451.623 433.148C451.623 416.347 473.08 395.145 474.7 393.569C474.701 393.569 474.701 393.569 474.702 393.569C474.702 393.569 474.703 393.568 474.703 393.568C474.704 393.568 474.704 393.567 474.704 393.567C474.704 393.566 474.704 393.566 474.704 393.565C474.765 393.509 474.797 393.477 474.797 393.477C474.797 393.477 497.971 415.687 497.971 433.148Z" fill="#F2F2F2"/>
<path d="M473.953 454.036L482.426 442.188L473.933 455.335L473.908 456.698C473.314 456.682 472.727 456.654 472.148 456.613L473.06 439.148L473.052 439.011L473.068 438.987L473.157 437.335L464.639 424.156L473.181 436.096L473.201 436.45L473.892 423.251L466.601 409.631L473.981 420.931L474.7 393.569L474.704 393.477V393.565L474.584 415.144L481.844 406.591L474.552 417.002L474.363 428.821L481.14 417.481L474.335 430.558L474.226 437.129L484.066 421.345L474.19 439.422L473.953 454.036Z" fill="#3F3D56"/>
</g>
<defs>
<clipPath id="clip0_2_157">
<rect width="520" height="527.027" fill="white"/>
</clipPath>
</defs>
</svg>
