<svg width="288" height="240" viewBox="0 0 288 240" fill="none" xmlns="http://www.w3.org/2000/svg">
<g clip-path="url(#clip0_562_536)">
<path d="M13.3715 228.695C17.3631 236.09 25.8347 239.265 25.8347 239.265C25.8347 239.265 27.8347 230.449 23.8431 223.053C19.8515 215.658 11.3798 212.483 11.3798 212.483C11.3798 212.483 9.37986 221.299 13.3715 228.695Z" fill="#2F2E41"/>
<path d="M16.1151 226.262C23.3216 230.593 26.0971 239.197 26.0971 239.197C26.0971 239.197 17.1885 240.778 9.98197 236.446C2.77546 232.115 0 223.511 0 223.511C0 223.511 8.90861 221.93 16.1151 226.262Z" fill="#F50057"/>
<path d="M177.686 11.5215H132.722V12.1632H177.686V11.5215Z" fill="#F2F2F2"/>
<path d="M165.482 12.0029H164.839V17.939H165.482V12.0029Z" fill="#F2F2F2"/>
<path d="M145.89 12.0029H145.248V17.939H145.89V12.0029Z" fill="#F2F2F2"/>
<path d="M200.489 42.3252H155.525V42.9669H200.489V42.3252Z" fill="#F2F2F2"/>
<path d="M168.372 36.5493H167.73V42.4854H168.372V36.5493Z" fill="#F2F2F2"/>
<path d="M187.963 36.5493H187.321V42.4854H187.963V36.5493Z" fill="#F2F2F2"/>
<path d="M260.226 56.7642H215.263V57.4059H260.226V56.7642Z" fill="#F2F2F2"/>
<path d="M228.11 50.9883H227.467V56.9243H228.11V50.9883Z" fill="#F2F2F2"/>
<path d="M247.701 50.9883H247.058V56.9243H247.701V50.9883Z" fill="#F2F2F2"/>
<path d="M255.73 205.646H210.766V206.288H255.73V205.646Z" fill="#F2F2F2"/>
<path d="M223.613 199.871H222.971V205.807H223.613V199.871Z" fill="#F2F2F2"/>
<path d="M243.204 199.871H242.562V205.807H243.204V199.871Z" fill="#F2F2F2"/>
<path d="M178.971 102.648H134.007V103.29H178.971V102.648Z" fill="#F2F2F2"/>
<path d="M146.854 96.8726H146.211V102.809H146.854V96.8726Z" fill="#F2F2F2"/>
<path d="M166.445 96.8726H165.803V102.809H166.445V96.8726Z" fill="#F2F2F2"/>
<path d="M193.102 179.977H148.139V180.619H193.102V179.977Z" fill="#F2F2F2"/>
<path d="M160.985 174.202H160.343V180.138H160.985V174.202Z" fill="#F2F2F2"/>
<path d="M180.577 174.202H179.934V180.138H180.577V174.202Z" fill="#F2F2F2"/>
<path d="M265.044 156.554H220.08V157.195H265.044V156.554Z" fill="#F2F2F2"/>
<path d="M232.927 150.778H232.285V156.714H232.927V150.778Z" fill="#F2F2F2"/>
<path d="M252.518 150.778H251.876V156.714H252.518V150.778Z" fill="#F2F2F2"/>
<path d="M116.282 225.308H40.234V224.762H115.735V198.252H46.6272L43.27 191.264L43.7633 191.028L46.9715 197.705H116.282V225.308Z" fill="#2F2E41"/>
<path d="M50.3555 238.7C53.5282 238.7 56.1002 236.13 56.1002 232.96C56.1002 229.791 53.5282 227.221 50.3555 227.221C47.1828 227.221 44.6108 229.791 44.6108 232.96C44.6108 236.13 47.1828 238.7 50.3555 238.7Z" fill="#3F3D56"/>
<path d="M106.981 238.7C110.154 238.7 112.726 236.13 112.726 232.96C112.726 229.791 110.154 227.221 106.981 227.221C103.809 227.221 101.237 229.791 101.237 232.96C101.237 236.13 103.809 238.7 106.981 238.7Z" fill="#3F3D56"/>
<path d="M173.729 114.622C175.693 114.622 177.285 113.032 177.285 111.069C177.285 109.107 175.693 107.517 173.729 107.517C171.765 107.517 170.173 109.107 170.173 111.069C170.173 113.032 171.765 114.622 173.729 114.622Z" fill="#3F3D56"/>
<path d="M124.416 189.233H38.9374L20.4419 128.834H143.464L143.352 129.189L124.416 189.233ZM39.3422 188.686H124.015L142.718 129.381H21.1813L39.3422 188.686Z" fill="#2F2E41"/>
<path d="M117.744 186.09H42.6647L26.4193 132.523H134.474L134.375 132.839L117.744 186.09Z" fill="#F2F2F2"/>
<path d="M144.996 123.438L144.467 123.297L148.078 109.703H169.079V110.249H148.499L144.996 123.438Z" fill="#2F2E41"/>
<path d="M137.316 147.145H26.4188V147.692H137.316V147.145Z" fill="#2F2E41"/>
<path d="M130.965 167.282H32.5854V167.829H130.965V167.282Z" fill="#2F2E41"/>
<path d="M82.2247 129.107H81.6776V188.959H82.2247V129.107Z" fill="#2F2E41"/>
<path d="M106.72 129.09L102.792 188.941L103.338 188.977L107.266 129.126L106.72 129.09Z" fill="#2F2E41"/>
<path d="M57.1939 129.089L56.6478 129.125L60.5524 188.977L61.0984 188.942L57.1939 129.089Z" fill="#2F2E41"/>
<path d="M287.767 239.046H0V239.688H287.767V239.046Z" fill="#2F2E41"/>
<path d="M191.227 19.8542C191.227 19.8542 195.922 33.2044 193.033 35.2582C190.144 37.3121 202.784 54.0853 202.784 54.0853L217.952 49.9776L209.646 35.9428C209.646 35.9428 208.562 21.9081 208.562 19.8542C208.562 17.8004 191.227 19.8542 191.227 19.8542Z" fill="#A0616A"/>
<path opacity="0.1" d="M191.227 19.8542C191.227 19.8542 195.922 33.2044 193.033 35.2582C190.144 37.3121 202.784 54.0853 202.784 54.0853L217.952 49.9776L209.646 35.9428C209.646 35.9428 208.562 21.9081 208.562 19.8542C208.562 17.8004 191.227 19.8542 191.227 19.8542Z" fill="black"/>
<path d="M183.347 115.016C183.347 115.016 181.976 132.132 183.347 141.032C184.717 149.932 186.773 174.578 186.773 174.578C186.773 174.578 186.773 221.132 194.311 221.817C201.849 222.502 207.331 223.186 208.016 220.448C208.701 217.709 204.59 216.34 206.646 214.971C208.701 213.602 209.387 208.809 206.646 203.332C203.905 197.855 206.646 142.401 206.646 142.401L219.666 177.317C219.666 177.317 221.036 206.071 222.407 210.179C223.777 214.286 221.036 221.817 225.833 222.502C230.63 223.186 236.112 219.079 238.853 217.709C241.594 216.34 234.741 216.34 236.112 215.655C237.482 214.971 241.594 212.917 240.223 212.232C238.853 211.548 237.482 178.686 237.482 178.686C237.482 178.686 233.713 108.512 228.917 105.774C224.12 103.035 221.036 107.752 221.036 107.752L183.347 115.016Z" fill="#2F2E41"/>
<path d="M195.681 219.079V224.556C195.681 224.556 189.514 239.444 195.681 239.444C201.849 239.444 206.646 240.986 206.646 238.933V220.448L195.681 219.079Z" fill="#2F2E41"/>
<path d="M236.112 219.069V224.546C236.112 224.546 242.279 239.434 236.112 239.434C229.945 239.434 225.148 240.977 225.148 238.923V220.439L236.112 219.069Z" fill="#2F2E41"/>
<path d="M200.821 29.7811C207.633 29.7811 213.156 24.2639 213.156 17.458C213.156 10.652 207.633 5.13477 200.821 5.13477C194.009 5.13477 188.486 10.652 188.486 17.458C188.486 24.2639 194.009 29.7811 200.821 29.7811Z" fill="#A0616A"/>
<path d="M197.052 40.3926C197.052 40.3926 200.478 50.6619 205.96 48.608L211.442 46.5542L221.036 112.278C221.036 112.278 213.498 123.232 202.534 116.386C191.57 109.539 197.052 40.3926 197.052 40.3926Z" fill="#F50057"/>
<path d="M206.646 38.3389L209.729 31.835C209.729 31.835 227.889 40.3927 230.63 43.1312C233.371 45.8697 233.371 49.9774 233.371 49.9774L228.574 67.093C228.574 67.093 229.944 104.747 229.944 106.116C229.944 107.486 234.741 115.016 231.315 112.278C227.889 109.539 227.203 106.801 224.462 110.909C221.721 115.016 215.554 119.809 215.554 119.809L206.646 38.3389Z" fill="#3F3D56"/>
<path d="M230.63 87.6313L228.574 106.801C228.574 106.801 216.239 117.755 218.98 118.439C221.721 119.124 223.092 116.385 223.092 116.385C223.092 116.385 227.889 121.178 230.63 118.439C233.371 115.701 240.223 89.6852 240.223 89.6852L230.63 87.6313Z" fill="#A0616A"/>
<path d="M201.084 0.0416714C198.349 -0.0559911 195.423 -0.104301 193.117 1.36789C192.057 2.10671 191.126 3.01665 190.364 4.06046C188.119 6.89644 186.179 10.4647 187.013 13.9834L187.981 13.6059C187.981 14.5452 187.772 15.4727 187.369 16.3213C187.506 15.925 187.963 16.5657 187.84 16.9665L186.773 20.4642C188.528 19.8217 190.71 21.1226 190.977 22.9701C191.099 18.9075 191.521 14.249 194.819 11.8702C196.483 10.6706 198.588 10.3044 200.614 9.97918C202.482 9.67917 204.441 9.39309 206.231 10.0077C208.021 10.6223 209.545 12.4511 209.139 14.298C209.965 14.014 210.888 14.5886 211.296 15.3596C211.703 16.1306 211.725 17.0401 211.737 17.9121C212.617 18.5333 213.618 17.2998 213.977 16.285C214.818 13.9027 215.566 11.3669 215.113 8.88158C214.659 6.39627 212.632 4.02117 210.104 4.01274C210.411 3.67593 210.574 3.23306 210.56 2.7778L208.476 2.60187C209.005 2.52702 209.492 2.27071 209.853 1.87685C209.016 2.79676 202.437 0.0899974 201.084 0.0416714Z" fill="#2F2E41"/>
<path d="M200.478 36.2847C200.478 36.2847 194.9 30.8233 192.892 31.1578C190.885 31.4924 188.143 36.2847 188.143 36.2847C188.143 36.2847 171.697 41.7617 172.382 47.2387C173.068 52.7156 180.606 79.4159 180.606 79.4159C180.606 79.4159 186.773 111.593 181.291 115.016C175.809 118.439 207.331 127.339 208.016 123.232C208.701 119.124 210.072 78.0466 208.016 71.885C205.96 65.7234 200.478 36.2847 200.478 36.2847Z" fill="#3F3D56"/>
<path d="M224.462 47.2388H232.936C232.936 47.2388 238.853 73.2544 239.538 75.9929C240.223 78.7314 241.594 91.7392 240.909 91.7392C240.223 91.7392 226.518 89.0007 226.518 91.0545L224.462 47.2388Z" fill="#3F3D56"/>
<path d="M224.176 111.662H191.738C188.572 97.114 188.308 83.0579 191.738 69.6284H224.176C218.941 82.8163 218.614 96.7761 224.176 111.662Z" fill="#F2F2F2"/>
<path d="M178.55 93.7932L188.143 97.901C188.143 97.901 206.646 100.639 206.646 93.1086C206.646 85.5778 188.143 89.6855 188.143 89.6855L181.976 87.7153L178.55 93.7932Z" fill="#A0616A"/>
<path d="M180.606 43.1313L172.382 45.1852L166.215 81.4701C166.215 81.4701 164.159 91.0548 167.586 91.7395C171.012 92.4241 180.606 97.9011 180.606 97.9011C180.606 97.9011 181.976 87.6317 184.717 87.6317L177.864 82.1548L181.976 58.193L180.606 43.1313Z" fill="#3F3D56"/>
<path d="M64.3136 113.237H19.35V113.879H64.3136V113.237Z" fill="#F2F2F2"/>
<path d="M32.1967 107.461H31.5543V113.397H32.1967V107.461Z" fill="#F2F2F2"/>
<path d="M51.788 107.461H51.1456V113.397H51.788V107.461Z" fill="#F2F2F2"/>
<path d="M80.0508 18.2598H35.0872V18.9015H80.0508V18.2598Z" fill="#F2F2F2"/>
<path d="M67.8463 18.7412H67.204V24.6773H67.8463V18.7412Z" fill="#F2F2F2"/>
<path d="M48.2551 18.7412H47.6128V24.6773H48.2551V18.7412Z" fill="#F2F2F2"/>
<path d="M125.336 81.4707H80.3719V82.1124H125.336V81.4707Z" fill="#F2F2F2"/>
<path d="M113.131 81.9521H112.489V87.8882H113.131V81.9521Z" fill="#F2F2F2"/>
<path d="M93.5398 81.9521H92.8975V87.8882H93.5398V81.9521Z" fill="#F2F2F2"/>
<path d="M48.8974 81.1499H3.93384V81.7916H48.8974V81.1499Z" fill="#F2F2F2"/>
<path d="M36.693 81.6313H36.0507V87.5674H36.693V81.6313Z" fill="#F2F2F2"/>
<path d="M17.1017 81.6313H16.4594V87.5674H17.1017V81.6313Z" fill="#F2F2F2"/>
<path d="M102.854 49.063H57.8901V49.7047H102.854V49.063Z" fill="#F2F2F2"/>
<path d="M70.7368 43.2876H70.0945V49.2237H70.7368V43.2876Z" fill="#F2F2F2"/>
<path d="M90.3281 43.2876H89.6858V49.2237H90.3281V43.2876Z" fill="#F2F2F2"/>
</g>
<defs>
<clipPath id="clip0_562_536">
<rect width="287.767" height="240" fill="white"/>
</clipPath>
</defs>
</svg>
